<svg width="478" height="478" viewBox="0 0 478 478" fill="none" xmlns="http://www.w3.org/2000/svg">
<g clip-path="url(#clip0_1536_36)">
<path d="M451.612 34.7388H25.453C11.399 34.7388 0 46.1378 0 60.1918V329.411C0 343.465 11.399 354.864 25.453 354.864H194.15L171.431 409.528H161.01C151.957 409.528 144.612 416.873 144.612 425.926C144.612 434.979 151.957 442.326 161.01 442.326H316.056C325.109 442.326 332.456 434.979 332.456 425.926C332.456 416.873 325.109 409.528 316.056 409.528H305.635L282.916 354.864H451.612C465.666 354.864 477.065 343.465 477.065 329.411V60.1918C477.065 46.1378 465.666 34.7388 451.612 34.7388ZM369.291 338.394C362.706 338.394 357.364 333.052 357.364 326.467C357.364 319.882 362.705 314.54 369.291 314.54C375.874 314.54 381.218 319.881 381.218 326.467C381.217 333.052 375.874 338.394 369.291 338.394ZM408.052 338.394C401.467 338.394 396.125 333.052 396.125 326.467C396.125 319.882 401.466 314.54 408.052 314.54C414.635 314.54 419.979 319.881 419.979 326.467C419.979 333.052 414.636 338.394 408.052 338.394ZM431.642 290.393C431.642 296.542 426.657 301.528 420.507 301.528H56.557C50.408 301.528 45.422 296.543 45.422 290.393V96.6558C45.422 90.5048 50.407 85.5208 56.557 85.5208H420.506C426.655 85.5208 431.641 90.5048 431.641 96.6558V290.393H431.642Z" fill="white"/>
<path d="M179.023 195.779H175.685V140.541C175.685 137.599 173.308 135.222 170.374 135.222H149.067C147.235 135.222 145.527 136.17 144.563 137.731L108.783 195.321C107.619 197.177 107.013 199.32 107.013 201.51V208.575C107.013 211.519 109.389 213.894 112.324 213.894H152.793V227.086C152.793 233.407 157.918 238.531 164.238 238.531C170.559 238.531 175.684 233.407 175.684 227.086V213.894H179.022C184.023 213.894 188.075 209.841 188.075 204.833C188.076 199.832 184.024 195.779 179.023 195.779ZM152.794 172.889V195.779H129.593V195.461L143.415 172.889C146.909 166.374 149.61 160.333 152.95 153.663H153.586C153.104 160.333 152.794 166.692 152.794 172.889Z" fill="white"/>
<path d="M236.125 133.476C209.414 133.476 196.696 157.157 196.696 187.036C196.868 216.278 208.623 240.279 235.319 240.279C261.702 240.279 274.577 218.344 274.577 186.399C274.576 158.113 263.767 133.476 236.125 133.476ZM235.954 222.001C226.589 222.001 220.86 210.718 221.014 187.035C220.86 163.035 226.901 151.753 235.798 151.753C245.489 151.753 250.426 163.836 250.426 186.717C250.427 210.245 245.333 222.001 235.954 222.001Z" fill="white"/>
<path d="M355.531 195.779H352.193V140.541C352.193 137.599 349.816 135.222 346.882 135.222H325.575C323.743 135.222 322.035 136.17 321.072 137.731L285.292 195.321C284.128 197.177 283.522 199.32 283.522 201.51V208.575C283.522 211.519 285.898 213.894 288.833 213.894H329.302V227.086C329.302 233.407 334.427 238.531 340.747 238.531C347.068 238.531 352.193 233.407 352.193 227.086V213.894H355.531C360.532 213.894 364.586 209.841 364.586 204.833C364.585 199.832 360.532 195.779 355.531 195.779ZM329.302 172.889V195.779H306.101V195.461L319.923 172.889C323.417 166.374 326.118 160.333 329.458 153.663H330.094C329.612 160.333 329.302 166.692 329.302 172.889Z" fill="white"/>
</g>
<defs>
<clipPath id="clip0_1536_36">
<rect width="477.065" height="477.065" fill="white"/>
</clipPath>
</defs>
</svg>
