<svg width="208" height="208" viewBox="0 0 208 208" fill="none" xmlns="http://www.w3.org/2000/svg">
<g clip-path="url(#clip0_1101_19)">
<path d="M103.814 149.681C129.146 149.681 149.682 129.146 149.682 103.813C149.682 78.4811 129.146 57.9453 103.814 57.9453C78.4821 57.9453 57.9463 78.4811 57.9463 103.813C57.9463 129.146 78.4821 149.681 103.814 149.681Z" fill="#eee" fill-opacity="0.85"/>
<path d="M103.814 39.385C99.6725 39.385 96.3145 36.027 96.3145 31.885V7.5C96.3145 3.358 99.6725 0 103.814 0C107.956 0 111.314 3.358 111.314 7.5V31.885C111.314 36.027 107.956 39.385 103.814 39.385Z" fill="#eee" fill-opacity="0.85"/>
<path d="M103.814 207.627C99.6725 207.627 96.3145 204.269 96.3145 200.127V175.742C96.3145 171.6 99.6725 168.242 103.814 168.242C107.956 168.242 111.314 171.6 111.314 175.742V200.127C111.314 204.27 107.956 207.627 103.814 207.627Z" fill="#eee" fill-opacity="0.85"/>
<path d="M200.128 111.314H175.743C171.601 111.314 168.243 107.956 168.243 103.814C168.243 99.6725 171.601 96.3145 175.743 96.3145H200.128C204.27 96.3145 207.628 99.6725 207.628 103.814C207.628 107.956 204.271 111.314 200.128 111.314Z" fill="#eee" fill-opacity="0.85"/>
<path d="M31.885 111.314H7.5C3.358 111.314 0 107.956 0 103.814C0 99.6725 3.358 96.3145 7.5 96.3145H31.885C36.027 96.3145 39.385 99.6725 39.385 103.814C39.385 107.956 36.027 111.314 31.885 111.314Z" fill="#eee" fill-opacity="0.85"/>
<path d="M154.676 60.4511C152.757 60.4511 150.837 59.7191 149.373 58.2541C146.444 55.3251 146.444 50.5761 149.373 47.6481L166.616 30.4061C169.545 27.4771 174.294 27.4761 177.222 30.4061C180.151 33.3351 180.151 38.0841 177.222 41.0121L159.979 58.2541C158.515 59.7191 156.595 60.4511 154.676 60.4511Z" fill="#eee" fill-opacity="0.85"/>
<path d="M35.7087 179.419C33.7897 179.419 31.8697 178.687 30.4057 177.222C27.4767 174.293 27.4767 169.544 30.4057 166.616L47.6487 149.373C50.5777 146.444 55.3267 146.444 58.2547 149.373C61.1837 152.302 61.1837 157.051 58.2547 159.979L41.0117 177.222C39.5477 178.687 37.6287 179.419 35.7087 179.419Z" fill="#eee" fill-opacity="0.85"/>
<path d="M171.918 179.419C169.999 179.419 168.079 178.687 166.615 177.222L149.372 159.979C146.443 157.05 146.443 152.301 149.372 149.373C152.301 146.444 157.05 146.444 159.978 149.373L177.221 166.616C180.15 169.545 180.15 174.294 177.221 177.222C175.757 178.687 173.838 179.419 171.918 179.419Z" fill="#eee" fill-opacity="0.85"/>
<path d="M52.9517 60.4511C51.0327 60.4511 49.1127 59.7191 47.6487 58.2541L30.4057 41.0121C27.4767 38.0831 27.4767 33.3351 30.4057 30.4061C33.3347 27.4771 38.0837 27.4761 41.0117 30.4061L58.2547 47.6481C61.1837 50.5771 61.1837 55.3251 58.2547 58.2541C56.7907 59.7191 54.8717 60.4511 52.9517 60.4511Z" fill="#eee" fill-opacity="0.85"/>
</g>
<defs>
<clipPath id="clip0_1101_19">
<rect width="207.628" height="207.628" fill="white"/>
</clipPath>
</defs>
</svg>
